<svg width="180" height="180" viewBox="0 0 180 180" fill="none" xmlns="http://www.w3.org/2000/svg">
<g clip-path="url(#clip0_11_84)">
<rect width="180" height="180" fill="#000509"/>
<path d="M-102 288V-152H71.5816C103.563 -152 131.967 -145.714 156.794 -133.143C181.622 -120.99 200.979 -103.809 214.865 -81.6C229.173 -59.8095 236.326 -34.6667 236.326 -6.17142C236.326 22.3238 229.173 47.6762 214.865 69.8857C200.558 92.0952 180.78 109.486 155.532 122.057C130.704 134.21 102.09 140.286 69.6879 140.286H-0.375888V288H-102ZM137.858 288L38.1277 113.257L114.504 57.3143L254 288H137.858ZM-0.375888 47.2571H68.4255C80.208 47.2571 90.7281 44.9524 99.9858 40.3429C109.243 35.7333 116.397 29.4476 121.447 21.4857C126.917 13.1048 129.652 3.88571 129.652 -6.17142C129.652 -21.6762 123.761 -34.4571 111.979 -44.5143C100.617 -54.5714 85.4681 -59.6 66.5319 -59.6H-0.375888V47.2571Z" fill="white"/>
</g>
<defs>
<clipPath id="clip0_11_84">
<rect width="180" height="180" fill="white"/>
</clipPath>
</defs>
</svg>
