<svg width="180" height="180" viewBox="0 0 180 180" fill="none" xmlns="http://www.w3.org/2000/svg">
<g clip-path="url(#clip0_12_2)">
<rect width="180" height="180" fill="#000509"/>
<path d="M-117 278V-162H56.5816C88.5626 -162 116.967 -155.714 141.794 -143.143C166.622 -130.99 185.979 -113.809 199.865 -91.6C214.173 -69.8095 221.326 -44.6667 221.326 -16.1714C221.326 12.3238 214.173 37.6762 199.865 59.8857C185.558 82.0952 165.78 99.4857 140.532 112.057C115.704 124.21 87.0898 130.286 54.6879 130.286H-15.3759V278H-117ZM122.858 278L23.1277 103.257L99.5035 47.3143L239 278H122.858ZM-15.3759 37.2571H53.4255C65.208 37.2571 75.7281 34.9524 84.9858 30.3429C94.2435 25.7333 101.397 19.4476 106.447 11.4857C111.917 3.10476 114.652 -6.11429 114.652 -16.1714C114.652 -31.6762 108.761 -44.4571 96.9787 -54.5143C85.617 -64.5714 70.4681 -69.6 51.5319 -69.6H-15.3759V37.2571Z" fill="white"/>
</g>
<defs>
<clipPath id="clip0_12_2">
<rect width="180" height="180" fill="white"/>
</clipPath>
</defs>
</svg>
